<svg width="268" height="89" viewBox="0 0 268 89" fill="none" xmlns="http://www.w3.org/2000/svg">
<path d="M43.4064 87.423C32.5374 87.5009 25.1267 83.3324 21.1743 74.9175C19.8062 71.9567 19.1221 68.2557 19.1221 63.8145C19.1221 59.2953 19.5022 54.5035 20.2622 49.439C21.7824 39.3099 24.7086 29.96 29.041 21.3892C31.2452 17.0259 33.7155 13.286 36.4517 10.1693C42.4563 3.31274 49.1449 -0.0766018 56.5176 0.00131316C59.7859 0.00131316 62.3321 0.936306 64.1563 2.80629C66.0564 4.59836 67.0065 7.20854 67.0065 10.6368C67.0065 14.0651 66.0184 17.5324 64.0422 21.0386C62.0661 24.4669 59.5198 28.0511 56.4035 31.791C53.3633 35.4531 49.981 39.3099 46.2566 43.3615C42.5323 47.4132 38.8839 51.8154 35.3116 56.5683V61.2433C35.3116 65.6065 36.2237 68.8011 38.0479 70.8269C39.872 72.8527 42.0002 73.8656 44.4324 73.8656C50.969 73.8656 56.7456 70.5542 61.762 63.9314C63.8142 61.2043 65.3724 59.8408 66.4365 59.8408C67.5006 59.8408 68.0326 61.1653 68.0326 63.8145C68.0326 66.4636 67.3105 69.1907 65.8664 71.9957C64.4983 74.7227 62.6741 77.255 60.3939 79.5925C58.1137 81.852 55.4915 83.722 52.5272 85.2024C49.5629 86.6828 46.5226 87.423 43.4064 87.423ZM49.5629 24.6617C51.1591 22.6359 52.4132 20.8049 53.3253 19.1686C54.2373 17.5324 54.6934 15.8572 54.6934 14.1431C54.6934 12.351 54.0853 11.455 52.8692 11.455C50.209 11.455 47.2447 14.2599 43.9764 19.8699C40.7841 25.4798 38.3899 32.8429 36.7938 41.9591C39.378 37.9074 41.7342 34.5181 43.8624 31.791C46.0666 29.064 47.9668 26.6875 49.5629 24.6617Z" fill="white"/>
<path d="M19.906 62.4193C19.906 62.4193 15.4525 67.8978 12.7803 71.5501C10.1082 75.2024 9.21737 76.1155 4.76389 82.507C0.310415 88.8985 -0.580323 88.8985 0.310377 88.8985C1.20108 88.8985 8.32678 89.8116 10.9989 86.1593C13.6711 82.507 13.6711 82.507 16.3432 78.8547C19.0152 75.2024 20.7967 73.3762 20.7967 73.3762L19.906 62.4193Z" fill="url(#paint0_linear_31_57)"/>
<path d="M106.411 57.8539C105.081 58.3409 103.229 58.7792 100.853 59.1687C98.5257 59.5096 95.7467 59.6801 92.5163 59.6801C88.431 59.6801 84.9394 59.1444 82.0416 58.073C79.1914 56.953 77.0299 55.0782 75.5573 52.4485C74.0847 49.7701 73.3484 46.0691 73.3484 41.3455C73.3484 34.9174 74.7735 30.2668 77.6237 27.3936C80.5215 24.5205 84.9869 23.0839 91.02 23.0839C95.3429 23.0839 98.7394 23.717 101.21 24.9831C103.727 26.2493 105.509 28.0511 106.554 30.3885C107.646 32.6773 108.193 35.4044 108.193 38.5697C108.193 39.495 108.145 40.4933 108.05 41.5646C108.003 42.636 107.884 43.6829 107.694 44.7056L107.409 44.9978H83.9656C84.2981 47.1405 85.2719 48.5527 86.8871 49.2345C88.5497 49.9162 91.2337 50.2571 94.9391 50.2571C97.4093 50.2571 99.452 50.2084 101.067 50.111C102.73 49.9649 104.416 49.7701 106.126 49.5266L106.411 49.7458V57.8539ZM98.2881 37.3279C98.2881 36.1592 98.0981 35.1609 97.7181 34.333C97.3855 33.4565 96.6967 32.7991 95.6516 32.3608C94.6065 31.8738 93.0627 31.6303 91.02 31.6303C88.0272 31.6303 86.0558 32.166 85.1057 33.2373C84.2031 34.26 83.7518 35.6235 83.7518 37.3279H98.2881Z" fill="white"/>
<path d="M111.76 41.4916C111.76 34.9661 113.114 30.2668 115.822 27.3936C118.529 24.5205 123.114 23.0839 129.574 23.0839C133.897 23.0839 137.365 23.717 139.978 24.9831C142.59 26.2493 144.467 28.2459 145.607 30.9729C146.795 33.6513 147.388 37.1575 147.388 41.4916C147.388 45.7769 146.795 49.2588 145.607 51.9372C144.467 54.6155 142.59 56.5878 139.978 57.8539C137.365 59.0713 133.897 59.6801 129.574 59.6801C123.114 59.6801 118.529 58.2678 115.822 55.4434C113.114 52.5702 111.76 47.9196 111.76 41.4916ZM129.574 49.6727C132.329 49.6727 134.182 49.064 135.132 47.8466C136.13 46.5804 136.629 44.3891 136.629 41.2724C136.629 38.3019 136.13 36.1835 135.132 34.9174C134.182 33.6026 132.329 32.9452 129.574 32.9452C126.914 32.9452 125.061 33.6026 124.016 34.9174C123.019 36.1835 122.52 38.3019 122.52 41.2724C122.52 44.3891 123.019 46.5804 124.016 47.8466C125.061 49.064 126.914 49.6727 129.574 49.6727Z" fill="white"/>
<path d="M164.832 59.0227H153.431V23.4492H164.262L164.832 29.9503H165.046C165.711 27.7589 166.899 26.0788 168.609 24.9101C170.319 23.6926 172.694 23.0839 175.734 23.0839C179.867 23.0839 182.908 24.277 184.855 26.6632C186.851 29.0494 187.848 33.1886 187.848 39.081V59.0227H176.447L176.376 41.3455C176.376 38.6184 175.972 36.6705 175.164 35.5018C174.357 34.333 172.837 33.7487 170.604 33.7487C168.514 33.7487 167.041 34.2843 166.186 35.3557C165.331 36.3783 164.88 38.1558 164.832 40.6881V59.0227Z" fill="white"/>
<path d="M226.239 57.8539C224.909 58.3409 223.056 58.7792 220.681 59.1687C218.354 59.5096 215.574 59.6801 212.344 59.6801C208.259 59.6801 204.767 59.1444 201.869 58.073C199.019 56.953 196.858 55.0782 195.385 52.4485C193.913 49.7701 193.176 46.0691 193.176 41.3455C193.176 34.9174 194.601 30.2668 197.452 27.3936C200.349 24.5205 204.815 23.0839 210.848 23.0839C215.171 23.0839 218.567 23.717 221.037 24.9831C223.555 26.2493 225.337 28.0511 226.382 30.3885C227.474 32.6773 228.021 35.4044 228.021 38.5697C228.021 39.495 227.973 40.4933 227.878 41.5646C227.831 42.636 227.712 43.6829 227.522 44.7056L227.237 44.9978H203.793C204.126 47.1405 205.1 48.5527 206.715 49.2345C208.378 49.9162 211.062 50.2571 214.767 50.2571C217.237 50.2571 219.28 50.2084 220.895 50.111C222.558 49.9649 224.244 49.7701 225.954 49.5266L226.239 49.7458V57.8539ZM218.116 37.3279C218.116 36.1592 217.926 35.1609 217.546 34.333C217.213 33.4565 216.525 32.7991 215.479 32.3608C214.434 31.8738 212.89 31.6303 210.848 31.6303C207.855 31.6303 205.884 32.166 204.934 33.2373C204.031 34.26 203.58 35.6235 203.58 37.3279H218.116Z" fill="white"/>
<path d="M257.454 40.9072L268 59.0227H255.316L249.473 48.1388H249.331L243.488 59.0227H230.519L241.35 40.9072V40.615L231.303 23.4492H243.773L249.331 34.5522H249.473L255.031 23.4492H267.501L257.454 40.615V40.9072Z" fill="white"/>
<path d="M86.5486 71.5135C85.6817 71.1361 84.8206 70.9474 83.9656 70.9474C82.2317 70.9474 81.3647 71.6049 81.3647 72.9197C81.3647 73.4919 81.5607 74.0276 81.9526 74.5267C82.3445 75.0137 82.8195 75.452 83.3777 75.8415C83.9359 76.2189 84.494 76.6085 85.0522 77.0103C85.6104 77.412 86.0854 77.8929 86.4774 78.4529C86.8693 79.013 87.0652 79.6217 87.0652 80.2791C87.0652 81.387 86.703 82.227 85.9786 82.7992C85.2541 83.3592 84.2506 83.6392 82.968 83.6392C81.6972 83.6392 80.6106 83.3044 79.708 82.6348L80.1355 81.9774C80.9906 82.5496 81.9288 82.8357 82.9502 82.8357C83.9715 82.8357 84.7553 82.6287 85.3016 82.2148C85.8479 81.7887 86.1211 81.18 86.1211 80.3887C86.1211 79.8408 85.9251 79.3234 85.5332 78.8364C85.1413 78.3373 84.6663 77.8929 84.1081 77.5033C83.5499 77.1016 82.9917 76.6937 82.4335 76.2798C81.8754 75.8659 81.4003 75.3728 81.0084 74.8006C80.6165 74.2284 80.4206 73.6136 80.4206 72.9562C80.4206 72.0918 80.7293 71.4101 81.3469 70.9109C81.9763 70.3996 82.8195 70.1439 83.8765 70.1439C84.9453 70.1439 85.937 70.3631 86.8515 70.8013L86.5486 71.5135Z" fill="white"/>
<path d="M106.73 83.6027C105.079 83.6027 103.695 83.0122 102.579 81.8313C101.463 80.6504 100.905 79.2077 100.905 77.5033C100.905 75.7868 101.463 74.338 102.579 73.1571C103.695 71.9762 105.079 71.3857 106.73 71.3857C108.381 71.3857 109.764 71.9762 110.88 73.1571C111.997 74.338 112.555 75.7868 112.555 77.5033C112.555 79.2077 111.997 80.6504 110.88 81.8313C109.764 83.0122 108.381 83.6027 106.73 83.6027ZM106.73 72.1344C105.305 72.1344 104.117 72.6519 103.167 73.6867C102.229 74.7215 101.76 75.9937 101.76 77.5033C101.76 79.0008 102.229 80.2669 103.167 81.3017C104.117 82.3244 105.305 82.8357 106.73 82.8357C108.167 82.8357 109.354 82.3244 110.293 81.3017C111.231 80.2669 111.7 79.0008 111.7 77.5033C111.7 75.9937 111.231 74.7215 110.293 73.6867C109.354 72.6519 108.167 72.1344 106.73 72.1344Z" fill="white"/>
<path d="M127.171 83.4201V71.5683H127.99V82.6531H133.299V83.4201H127.171Z" fill="white"/>
<path d="M154.465 82.1966C153.682 83.134 152.488 83.6027 150.885 83.6027C149.281 83.6027 148.088 83.134 147.304 82.1966C146.52 81.2591 146.128 79.9626 146.128 78.3068V71.5683H146.948V78.3068C146.948 81.3383 148.26 82.854 150.885 82.854C153.509 82.854 154.822 81.3383 154.822 78.3068V71.5683H155.641V78.3068C155.641 79.9626 155.249 81.2591 154.465 82.1966Z" fill="white"/>
<path d="M172.916 72.3171H168.997V71.5683H177.637V72.3171H173.717V83.4201H172.916V72.3171Z" fill="white"/>
<path d="M191.097 83.4201V71.5683H191.916V83.4201H191.097Z" fill="white"/>
<path d="M212.352 83.6027C210.701 83.6027 209.317 83.0122 208.201 81.8313C207.085 80.6504 206.526 79.2077 206.526 77.5033C206.526 75.7868 207.085 74.338 208.201 73.1571C209.317 71.9762 210.701 71.3857 212.352 71.3857C214.002 71.3857 215.386 71.9762 216.502 73.1571C217.619 74.338 218.177 75.7868 218.177 77.5033C218.177 79.2077 217.619 80.6504 216.502 81.8313C215.386 83.0122 214.002 83.6027 212.352 83.6027ZM212.352 72.1344C210.926 72.1344 209.739 72.6519 208.789 73.6867C207.851 74.7215 207.381 75.9937 207.381 77.5033C207.381 79.0008 207.851 80.2669 208.789 81.3017C209.739 82.3244 210.926 82.8357 212.352 82.8357C213.789 82.8357 214.976 82.3244 215.914 81.3017C216.853 80.2669 217.322 79.0008 217.322 77.5033C217.322 75.9937 216.853 74.7215 215.914 73.6867C214.976 72.6519 213.789 72.1344 212.352 72.1344Z" fill="white"/>
<path d="M232.792 83.4201V71.4953H233.184L240.773 80.4435C241.046 80.76 241.296 81.0765 241.521 81.3931C241.759 81.6974 241.884 81.8557 241.895 81.8679C241.872 81.5757 241.86 81.0035 241.86 80.1513V71.5683H242.679V83.4931H242.287L234.556 74.3989L233.576 73.1754C233.6 73.4188 233.612 73.991 233.612 74.8919V83.4201H232.792Z" fill="white"/>
<path d="M260.332 72.0797C259.69 72.0797 259.168 72.2379 258.764 72.5545C258.36 72.871 258.158 73.3154 258.158 73.8876C258.158 74.545 258.426 75.1354 258.96 75.6589C259.34 76.0363 259.827 76.4381 260.421 76.8642C261.026 77.2781 261.442 77.5764 261.668 77.759C261.893 77.9416 262.167 78.1912 262.487 78.5077C263.069 79.1043 263.36 79.7921 263.36 80.5713C263.36 81.5817 263.028 82.3487 262.363 82.8722C261.709 83.3836 260.789 83.6392 259.601 83.6392C258.426 83.6392 257.44 83.3227 256.644 82.6896L257.072 82.0505C257.879 82.6105 258.734 82.8905 259.637 82.8905C260.54 82.8905 261.24 82.6957 261.739 82.3061C262.25 81.9165 262.505 81.3687 262.505 80.6626C262.505 80.0539 262.25 79.4939 261.739 78.9825C261.383 78.6173 260.902 78.2216 260.296 77.7955C259.702 77.3694 259.287 77.0651 259.049 76.8824C258.812 76.6877 258.532 76.432 258.212 76.1155C257.606 75.4946 257.303 74.7763 257.303 73.9606C257.303 73.1449 257.582 72.5058 258.141 72.0431C258.711 71.5805 259.494 71.3492 260.492 71.3492C261.49 71.3492 262.386 71.5501 263.182 71.9518L262.879 72.6275C262.143 72.2623 261.294 72.0797 260.332 72.0797Z" fill="white"/>
<defs>
<linearGradient id="paint0_linear_31_57" x1="45.0822" y1="62.4193" x2="45.0822" y2="90.7247" gradientUnits="userSpaceOnUse">
<stop stop-color="white"/>
<stop offset="1" stop-color="white"/>
</linearGradient>
</defs>
</svg>
